<svg id="Capa_1" enable-background="new 0 0 512.074 512.074" height="512" viewBox="0 0 512.074 512.074" width="512" xmlns="http://www.w3.org/2000/svg"><g><path d="m256.037 183.413c4.142 0 7.5-3.358 7.5-7.5v-8.016c0-4.142-3.358-7.5-7.5-7.5s-7.5 3.358-7.5 7.5v8.016c0 4.142 3.358 7.5 7.5 7.5z"/><path d="m248.537 400.365v8.016c0 4.142 3.358 7.5 7.5 7.5s7.5-3.358 7.5-7.5v-8.016c0-4.142-3.358-7.5-7.5-7.5s-7.5 3.358-7.5 7.5z"/><path d="m368.263 295.639h8.016c4.142 0 7.5-3.358 7.5-7.5s-3.358-7.5-7.5-7.5h-8.016c-4.142 0-7.5 3.358-7.5 7.5s3.358 7.5 7.5 7.5z"/><path d="m143.812 280.639h-8.016c-4.142 0-7.5 3.358-7.5 7.5s3.358 7.5 7.5 7.5h8.016c4.142 0 7.5-3.358 7.5-7.5s-3.358-7.5-7.5-7.5z"/><path d="m248.537 265.839c-6.951 2.344-12.455 7.849-14.8 14.8h-57.862c-4.142 0-7.5 3.358-7.5 7.5s3.358 7.5 7.5 7.5h57.862c3.139 9.308 11.946 16.032 22.3 16.032 12.976 0 23.532-10.557 23.532-23.532 0-10.353-6.724-19.16-16.032-22.3v-57.862c0-4.142-3.358-7.5-7.5-7.5s-7.5 3.358-7.5 7.5zm7.5 30.832c-4.705 0-8.532-3.828-8.532-8.532s3.828-8.532 8.532-8.532 8.532 3.828 8.532 8.532-3.827 8.532-8.532 8.532z"/><path d="m438.157 15.208c-39.708-26.014-92.269-17.944-122.259 18.774-2.812 3.443-4.036 7.933-3.36 12.319.67 4.345 3.159 8.217 6.829 10.621l58.821 38.535-15.518 23.686c-28.9-18.301-62.791-29.39-99.133-30.738v-25.234h.516c12.976 0 23.532-10.557 23.532-23.532s-10.557-23.532-23.532-23.532h-16.032c-12.976 0-23.532 10.557-23.532 23.532s10.557 23.532 23.532 23.532h.516v25.236c-36.342 1.348-70.232 12.437-99.133 30.738l-15.518-23.686 58.822-38.535c3.669-2.404 6.158-6.276 6.828-10.621.676-4.386-.548-8.876-3.36-12.319-29.989-36.718-82.55-44.79-122.259-18.774-39.709 26.013-53.302 77.422-31.617 119.581 2.033 3.953 5.66 6.869 9.952 8.001 1.304.344 2.636.513 3.961.513 2.996 0 5.96-.865 8.504-2.532l56.623-37.095 15.696 23.958c-49.047 36.46-80.885 94.831-80.885 160.503 0 56.122 23.258 106.906 60.631 143.247l-19.701 59.104c-1.662 4.987-.82 10.51 2.254 14.774 3.073 4.265 8.047 6.811 13.303 6.811 4.38 0 8.499-1.706 11.596-4.803l41.059-41.059c27.248 13.942 58.095 21.813 90.747 21.813s63.499-7.871 90.747-21.813l41.059 41.059c3.097 3.098 7.215 4.803 11.596 4.803 5.256 0 10.23-2.546 13.303-6.811 3.074-4.264 3.916-9.788 2.254-14.774l-19.701-59.104c37.372-36.341 60.631-87.125 60.631-143.247 0-65.672-31.838-124.043-80.885-160.503l15.696-23.958 56.623 37.096c2.544 1.667 5.508 2.532 8.503 2.532 1.326 0 2.658-.169 3.961-.513 4.292-1.132 7.918-4.049 9.951-8.001 21.681-42.16 8.089-93.569-31.621-119.584zm-198.668 24.431c0-4.705 3.828-8.532 8.532-8.532h16.032c4.705 0 8.532 3.828 8.532 8.532s-3.828 8.532-8.532 8.532h-16.032c-4.705 0-8.532-3.828-8.532-8.532zm-182.992 88.588c-.056.037-.188.123-.419.062-.195-.052-.343-.172-.438-.358-18.164-35.314-6.773-78.379 26.497-100.176 13.112-8.59 27.892-12.744 42.53-12.744 22.505 0 44.672 9.825 59.892 28.46.165.202.174.408.153.545-.037.237-.168.323-.224.36zm57.129 368.438c-.26.26-.621.41-.989.41-.592 0-.943-.316-1.135-.581-.191-.265-.379-.699-.192-1.26l17.64-52.92c7.184 5.932 14.792 11.366 22.764 16.263zm287.139-1.432c.188.561-.001.995-.192 1.26s-.543.581-1.135.581c-.368 0-.729-.149-.989-.41l-38.088-38.088c7.972-4.898 15.58-10.331 22.764-16.263zm40.159-207.094c0 101.947-82.94 184.887-184.887 184.887s-184.887-82.94-184.887-184.887 82.94-184.887 184.887-184.887 184.887 82.939 184.887 184.887zm15.511-160.209c-.095.186-.243.306-.438.358-.231.062-.363-.025-.419-.062l-127.991-83.85c-.056-.037-.188-.123-.224-.36-.021-.137-.012-.343.153-.545 15.222-18.637 37.385-28.46 59.892-28.46 14.636 0 29.42 4.156 42.53 12.744 33.269 21.797 44.661 64.862 26.497 100.175z"/><path d="m248.136 128.537c-39.668 1.945-76.993 18.496-105.099 46.602s-44.657 65.431-46.602 105.099c-1.932 39.382 10.622 77.872 35.347 108.378 1.482 1.829 3.647 2.778 5.831 2.778 1.659 0 3.329-.548 4.718-1.674 3.218-2.608 3.712-7.331 1.104-10.549-22.398-27.634-33.769-62.508-32.019-98.198 1.763-35.941 16.759-69.76 42.227-95.228 25.468-25.467 59.287-40.464 95.228-42.227 35.695-1.751 70.564 9.621 98.198 32.019 3.219 2.608 7.941 2.114 10.549-1.104s2.114-7.941-1.104-10.549c-30.506-24.726-68.996-37.281-108.378-35.347z"/><path d="m400.657 295.305c-1.763 35.941-16.759 69.76-42.227 95.228s-59.287 40.464-95.228 42.227c-35.693 1.756-70.563-9.621-98.198-32.019-3.218-2.607-7.94-2.112-10.549 1.104-2.608 3.218-2.114 7.941 1.104 10.549 28.462 23.069 63.871 35.541 100.472 35.541 2.629 0 5.267-.064 7.906-.194 39.668-1.945 76.993-18.496 105.099-46.602s44.657-65.431 46.602-105.099c1.932-39.382-10.622-77.872-35.347-108.378-2.609-3.218-7.332-3.712-10.549-1.104-3.218 2.608-3.712 7.331-1.104 10.549 22.399 27.634 33.77 62.508 32.019 98.198z"/></g></svg>