<svg id="design-think" enable-background="new 0 0 300 300" height="512" viewBox="0 0 300 300" width="512" xmlns="http://www.w3.org/2000/svg"><g><circle cx="253.169" cy="191.265" r="4"/><path d="m65.169 59.265c6.617 0 12-5.383 12-12s-5.383-12-12-12-12 5.383-12 12 5.383 12 12 12zm0-16c2.205 0 4 1.793 4 4s-1.795 4-4 4-4-1.793-4-4 1.795-4 4-4z"/><path d="m257.872 85.785c-.754-.75-1.562-1.441-2.424-2.066 3.6-8.43 1.65-18.609-5.301-25.559-6.188-6.188-15.127-8.465-23.115-6.125-.447-.531-.908-1.035-1.389-1.516-6.867-6.867-16.844-9.086-25.43-6-1.305-2.094-2.838-4.027-4.582-5.77-5.877-5.879-13.582-9.238-21.695-9.465-7.13-.19-13.819 2.042-19.163 6.342l-1.173-.096c-23.652-1.801-46.289 5.746-63.701 21.23-18.883 16.793-30.453 41.906-31.85 69.043l-20.393 40.133c-.082.164-.154.332-.215.504-1.045 3.027-.758 6.363.789 9.152 1.506 2.719 4.078 4.668 7.059 5.355l15.277 3.508 4.268 48.418c.586 5.652 5.223 9.918 10.787 9.918.146 0 .293-.008.438-.023l31.836-3.512v27.469c0 2.211 1.791 4 4 4s4-1.789 4-4v-31.934c0-1.137-.484-2.219-1.332-2.98-.848-.758-1.99-1.117-3.105-.996l-36.006 3.973c-1.375-.09-2.504-1.234-2.654-2.68l-4.518-51.25c-.152-1.727-1.398-3.16-3.088-3.547l-18.109-4.16c-1.057-.242-1.613-1.004-1.854-1.434-.412-.746-.516-1.625-.291-2.449l20.164-39.684c.537-.664.854-1.488.889-2.355 1.049-25.398 11.701-48.906 29.225-64.492 14.582-12.963 33.22-19.71 52.91-19.367-1.549 2.621-2.728 5.46-3.397 8.469-6.547-.586-12.996 1.605-17.564 6.176-.001.001-.002.003-.003.004-.201.137-.427.221-.606.398-4.927 4.865-6.781 11.679-5.565 18.021-4.738.123-9.25 1.974-12.619 5.343-7.879 7.879-5.342 21 1.969 28.312.75.75 1.768 1.172 2.828 1.172h40.758c-.717 2.697-1.122 5.495-1.122 8.363 0 6.617 5.383 12 12 12s12-5.383 12-12c0-2.254.885-4.371 2.494-5.957 1.174-1.16 3.123-2.5 5.994-2.402 4.328.059 8.178 3.906 8.236 8.234.045 3.23-1.801 6.234-4.699 7.652-9.66 4.715-15.662 14.148-15.662 24.621v11.488c0 6.617 5.383 12 12 12s12-5.383 12-12v-11.488c0-1.227.84-2.398 2.193-3.059 11.207-5.473 18.34-17.07 18.168-29.543-.038-2.731-.461-5.373-1.154-7.91h12.703c1.134 5.038 1.887 10.192 2.131 15.367 1.098 23.195-6.484 45.484-21.346 62.766-6.064 7.047-9.404 16.086-9.404 25.449v51.879c0 2.211 1.791 3.996 4 3.996s4-1.789 4-4v-51.875c0-7.449 2.652-14.633 7.469-20.23 16.201-18.84 24.467-43.117 23.273-68.359-.238-5.046-.971-10.057-1.987-14.992h19.954c1.502 0 2.879-.844 3.562-2.18 3.441-6.734 3.892-16.546-2.858-23.3zm-62.02 55.746c-4.123 2.012-6.684 5.938-6.684 10.246v11.488c0 2.207-1.795 4-4 4s-4-1.793-4-4v-11.488c0-7.391 4.281-14.07 11.172-17.434 5.67-2.77 9.277-8.637 9.189-14.949-.119-8.621-7.504-16.004-16.014-16.121-.217-.008-.436-.016-.652-.016-4.137 0-8.086 1.66-11.186 4.719-3.143 3.102-4.873 7.238-4.873 11.652 0 2.207-1.795 4-4 4s-4-1.793-4-4c0-6.574 2.578-12.734 7.258-17.348 4.734-4.672 10.682-7.059 17.453-7.012 13.059.18 23.832 10.953 24.014 24.016.13 9.395-5.239 18.126-13.677 22.247zm58.639-38.266h-41.511c-5.598-9.401-15.788-15.835-27.358-15.996-8.73-.074-16.975 3.199-23.176 9.316-2.045 2.017-3.756 4.272-5.174 6.68h-42.324c-3.707-4.617-4.984-11.762-.92-15.828 2.759-2.751 6.941-3.667 10.964-2.459.457.579.859 1.188 1.389 1.725 3.906 3.953 9.066 5.934 14.229 5.934 5.082 0 10.164-1.918 14.055-5.766 1.572-1.551 1.588-4.082.035-5.656-1.555-1.566-4.086-1.59-5.656-.031-4.711 4.645-12.318 4.605-16.971-.102-1.654-1.677-2.686-3.727-3.152-5.874-.483-4.28.878-8.514 3.9-11.536 3.598-3.598 8.883-4.832 14.143-3.301 1.158.344 2.414.133 3.408-.559.994-.695 1.619-1.801 1.701-3.008.355-5.203 2.441-9.852 6.035-13.445 4.086-4.09 9.59-6.32 15.605-6.078 6.061.168 11.836 2.699 16.262 7.125 1.474 1.473 2.674 3.182 3.731 4.992-2.839 3.755-4.458 8.26-4.487 13.051-.037 5.879 2.219 11.418 6.348 15.598.783.789 1.814 1.188 2.846 1.188 1.016 0 2.031-.383 2.811-1.156 1.572-1.551 1.588-4.082.035-5.656-2.629-2.66-4.062-6.184-4.039-9.922.021-3.643 1.446-7.052 3.979-9.653 6.05-3.094 13.657-1.802 18.789 3.329.811.812 1.555 1.742 2.273 2.844 1.09 1.668 3.234 2.281 5.039 1.438 5.652-2.625 12.555-1.273 17.191 3.359 4.619 4.617 5.939 11.325 3.574 16.806-.008 0-.015-.005-.024-.005l-5.234-.031c-.031 0-.064 0-.098 0-4.166 0-8.09 1.609-11.055 4.539-2.992 2.953-4.652 6.898-4.678 11.102-.014 2.207 1.768 4.012 3.977 4.023h.023c2.199 0 3.986-1.773 4-3.977.012-2.066.828-4.004 2.299-5.457 1.459-1.438 3.387-2.23 5.436-2.23h.049l5.234.031h.023c.028 0 .051-.016.079-.016.128.075.215.2.353.262 1.424.641 2.693 1.508 3.768 2.582 3.231 3.232 3.469 7.994 2.274 11.818z"/><path d="m185.169 179.265c-6.617 0-12 5.383-12 12s5.383 12 12 12 12-5.383 12-12-5.383-12-12-12zm0 16c-2.205 0-4-1.793-4-4s1.795-4 4-4 4 1.793 4 4-1.795 4-4 4z"/></g></svg>