<?xml version="1.0"?>
<svg xmlns="http://www.w3.org/2000/svg" id="outline" viewBox="0 0 512 512" width="512" height="512"><rect x="208" y="120" width="32" height="16"/><path d="M240,208h8a24.02718,24.02718,0,0,0,24-24V168H256v16a8.00917,8.00917,0,0,1-8,8h-8Z"/><circle cx="224" cy="152" r="8"/><rect x="272" y="120" width="32" height="16"/><circle cx="288" cy="152" r="8"/><path d="M448,496a8.00008,8.00008,0,0,0,8-8V326.5332a71.8388,71.8388,0,0,0-38.3125-63.63281l-91.54834-48.46692A79.49854,79.49854,0,0,0,336,176V80a64.07239,64.07239,0,0,0-64-64H240a32.01143,32.01143,0,0,0-27.69482,16H208a32.03635,32.03635,0,0,0-32,32V176a79.49854,79.49854,0,0,0,9.86084,38.43347L94.3125,262.90039A71.8388,71.8388,0,0,0,56,326.5332V488a8.00008,8.00008,0,0,0,8,8ZM288,456.94434l8,4V480h-8Zm92.42188-8.09961A7.99967,7.99967,0,0,0,376,456v24H312V456a7.99967,7.99967,0,0,0-4.42188-7.15527l-25.416-12.708,4.35254-10.88233a48.21492,48.21492,0,0,1,26.73926-26.74023l5.91064-2.36414A32.06484,32.06484,0,0,0,336,406.9873V448h16V406.9873A32.06484,32.06484,0,0,0,368.83545,396.15l5.91064,2.36414a48.21492,48.21492,0,0,1,26.73926,26.74023l4.35254,10.88233ZM360,344H328v-3.71826L343.79785,329.75A10.42171,10.42171,0,0,1,360,338.42236Zm0,16v16a16,16,0,0,1-32,0V360Zm32,120V460.94434l8-4V480Zm48-153.4668V480H416V448.94434l3.57812-1.78907a8.00051,8.00051,0,0,0,3.84961-10.12646l-7.08691-17.71631a64.28107,64.28107,0,0,0-35.65332-35.65381l-5.18555-2.0741A32.022,32.022,0,0,0,376,376V338.42236A26.42138,26.42138,0,0,0,334.92188,316.438L315.5625,329.34375A7.99943,7.99943,0,0,0,312,336v35.78442a64.03915,64.03915,0,0,0-19.3125-12.12573l-7.3335-2.93335A31.81387,31.81387,0,0,0,288,344V330.42188l58.18213-87.27344,64.019,33.89258A55.8739,55.8739,0,0,1,440,326.5332ZM256,360a16.01833,16.01833,0,0,1-16-16V328h32v16A16.01833,16.01833,0,0,1,256,360ZM216,80a11.239,11.239,0,0,1,8,3.31348L236.68555,96a27.3155,27.3155,0,0,0,38.6289,0L288,83.31348a11.31426,11.31426,0,0,1,16,0l16,16V176a64,64,0,0,1-128,0V99.31348l16-16A11.239,11.239,0,0,1,216,80Zm39.79785,217.75A10.42171,10.42171,0,0,1,272,306.42236V312H240v-3.71826Zm76.17139-62.126-44.32617,66.48951A26.46934,26.46934,0,0,0,264,280.1156V255.599a79.90474,79.90474,0,0,0,52.98657-27.90711ZM240,32h32a48.05313,48.05313,0,0,1,47.8623,44.54785L315.31445,72a27.3155,27.3155,0,0,0-38.6289,0L264,84.68652a11.31426,11.31426,0,0,1-16,0L235.31445,72A27.18016,27.18016,0,0,0,224,65.18518V48A16.01833,16.01833,0,0,1,240,32ZM208,48V65.18518A27.18016,27.18016,0,0,0,196.68555,72L192,76.68567V64A16.01833,16.01833,0,0,1,208,48Zm40,207.599v28.17566c-.36133.217-.72583.42834-1.07812.66333L227.5625,297.34375a7.997,7.997,0,0,0-3.2981,4.6311L180.03076,235.624l14.98267-7.93213A79.90474,79.90474,0,0,0,248,255.599ZM72,326.5332A55.8739,55.8739,0,0,1,101.79883,277.041l64.019-33.89258L224,330.42188V344a31.80819,31.80819,0,0,0,2.646,12.7251l-7.33448,2.93359A64.03943,64.03943,0,0,0,200,371.7843V338.42236A26.42138,26.42138,0,0,0,158.92188,316.438L139.5625,329.34375A7.99943,7.99943,0,0,0,136,336v40a32.022,32.022,0,0,0,.49805,5.58459l-5.18555,2.0741A64.28172,64.28172,0,0,0,95.65918,419.312l-7.08691,17.7168a8.00051,8.00051,0,0,0,3.84961,10.12646L96,448.94434V480H72ZM168,392a16.01833,16.01833,0,0,1-16-16V360h32v16A16.01833,16.01833,0,0,1,168,392Zm16-48H152v-3.71826L167.79785,329.75A10.42171,10.42171,0,0,1,184,338.42236ZM112,456.94434l8,4V480h-8Zm92.42188-8.09961A7.99967,7.99967,0,0,0,200,456v24H136V456a7.99967,7.99967,0,0,0-4.42188-7.15527l-25.416-12.708,4.35254-10.88233a48.21492,48.21492,0,0,1,26.73926-26.74023l5.91064-2.36414A32.06484,32.06484,0,0,0,160,406.9873V448h16V406.9873A32.06484,32.06484,0,0,0,192.83545,396.15l5.91064,2.36414a48.21492,48.21492,0,0,1,26.73926,26.74023l4.35254,10.88233ZM216,480V460.94434l8-4V480Zm24-31.05566,3.57812-1.78907a8.00051,8.00051,0,0,0,3.84961-10.12646l-7.08691-17.71631A64.30318,64.30318,0,0,0,208.80566,385.501a48.08449,48.08449,0,0,1,16.44825-10.98682l11.82373-4.72925A31.88347,31.88347,0,0,0,248,374.9873V408h16V374.9873a31.88347,31.88347,0,0,0,10.92236-5.20239l11.82276,4.72925a48.08271,48.08271,0,0,1,16.449,10.98682,64.30493,64.30493,0,0,0-31.53491,33.811l-7.08691,17.7168a8.00051,8.00051,0,0,0,3.84961,10.12646L272,448.94434V480H240Z"/></svg>
