<svg id="Capa_1" enable-background="new 0 0 510.998 510.998" height="512" viewBox="0 0 510.998 510.998" width="512" xmlns="http://www.w3.org/2000/svg"><g><path d="m494.506 53.381h-65.791c3.077-19.275-5.309-39.443-22.858-50.454-7.03-4.412-16.336-2.28-20.746 4.75l-28.675 45.704h-205.043l-28.674-45.704c-4.409-7.029-13.715-9.16-20.746-4.75-17.318 10.865-26.008 30.933-22.858 50.454h-62.623c-9.094 0-16.492 7.398-16.492 16.492v231.307c0 9.094 7.398 16.493 16.492 16.493h23.008c4.142 0 7.5-3.358 7.5-7.5s-3.358-7.5-7.5-7.5h-23.008c-.823 0-1.492-.669-1.492-1.493v-231.307c0-.823.669-1.493 1.492-1.493h330.532l-9.411 15h-201.667c-4.142 0-7.5 3.358-7.5 7.5s3.358 7.5 7.5 7.5h192.256l-20.281 32.326c-14.634-11.946-32.778-18.445-51.922-18.445-45.375 0-82.29 36.915-82.29 82.29 0 19.611 6.83 38.163 19.338 52.976l-14.789 25.145h-102.011c-2.99-14.671-14.576-26.256-29.247-29.247v-50.399h58.076c4.142 0 7.5-3.358 7.5-7.5s-3.358-7.5-7.5-7.5h-58.076v-50.399c14.671-2.99 26.256-14.576 29.247-29.247h27.737c4.142 0 7.5-3.358 7.5-7.5s-3.358-7.5-7.5-7.5h-34.484c-4.142 0-7.5 3.358-7.5 7.5 0 12.407-10.093 22.5-22.5 22.5-4.142 0-7.5 3.358-7.5 7.5v129.292c0 4.142 3.358 7.5 7.5 7.5 12.407 0 22.5 10.093 22.5 22.5 0 4.142 3.358 7.5 7.5 7.5h99.935l-8.822 15h-89.15c-4.142 0-7.5 3.358-7.5 7.5s3.358 7.5 7.5 7.5h93.44c2.658 0 5.117-1.407 6.465-3.698l32.203-54.751 11.86 18.904-30.256 48.224c-2.341-.194-4.723-.032-7.079.508-6.009 1.375-11.124 5.009-14.4 10.231l-8.698 13.864c-26.372 1.049-50.188 14.777-64.323 37.306-11.321 18.043-14.938 39.416-10.184 60.18s17.31 38.434 35.354 49.754c13.141 8.245 27.778 12.175 42.253 12.174 26.557-.002 52.556-13.236 67.681-37.344 14.135-22.53 16.135-49.944 5.603-74.147l8.699-13.864c4.734-7.547 4.547-16.802.314-23.997l13.52-21.55 13.52 21.55c-4.233 7.195-4.42 16.451.315 23.997l8.698 13.864c-10.532 24.203-8.532 51.617 5.603 74.147 15.127 24.11 41.122 37.345 67.681 37.344 14.473 0 29.115-3.931 42.253-12.174 18.044-11.32 30.599-28.99 35.354-49.754 4.754-20.764 1.137-42.137-10.184-60.18-14.135-22.53-37.949-36.259-64.323-37.306l-8.698-13.864c-3.276-5.223-8.39-8.856-14.399-10.232-2.356-.539-4.738-.701-7.079-.508l-30.256-48.223 13.495-21.51 33.736 57.358c1.348 2.291 3.807 3.698 6.465 3.698h148.41c9.094 0 16.492-7.398 16.492-16.493v-231.307c0-9.094-7.398-16.492-16.492-16.492zm-384.493-37.733 23.673 37.732h-39.293c-3.37-14.403 2.711-29.685 15.62-37.732zm78.696 178.904c0-37.104 30.186-67.29 67.29-67.29 16.279 0 31.665 5.759 43.866 16.285l-22.231 35.433-12.79-21.746c-1.968-3.348-5.462-5.346-9.345-5.346s-7.377 1.999-9.345 5.345l-44.933 76.396c-8.118-11.329-12.512-24.862-12.512-39.077zm65.206 22.235-13.102-20.884 14.687-24.971 13.154 22.364zm-41.777 27.869 20.107-34.186 12.817 20.428-20.777 33.117zm15.236 132.386-10.866 17.319c-1.389 2.214-1.525 4.992-.359 7.332 10.168 20.398 9.018 44.084-3.076 63.361-18.974 30.243-59.014 39.409-89.257 20.436-14.65-9.191-24.844-23.538-28.704-40.396-3.859-16.858-.923-34.211 8.268-48.861 11.949-19.045 32.417-30.343 54.885-30.343.273 0 .551.002.825.005 2.623.051 5.056-1.299 6.445-3.514l10.866-17.319c1.147-1.829 2.938-3.101 5.042-3.582 2.103-.483 4.269-.115 6.097 1.032l37.284 23.392c3.773 2.367 4.917 7.364 2.55 11.138zm104.054-31.98 10.866 17.319c1.389 2.214 3.844 3.566 6.445 3.514 22.776-.285 43.616 11.061 55.71 30.337 9.191 14.65 12.127 32.002 8.268 48.861-3.86 16.858-14.054 31.205-28.704 40.396-30.242 18.975-70.283 9.806-89.257-20.436-12.094-19.276-13.244-42.963-3.076-63.361 1.166-2.339 1.03-5.117-.359-7.332l-10.866-17.319c-2.368-3.774-1.224-8.771 2.55-11.139l37.284-23.392c1.827-1.147 3.993-1.514 6.097-1.032 2.105.484 3.895 1.756 5.042 3.584zm-22.843-12.914-29.818 18.708-15.999-25.5 20.778-33.117zm9.56-109.168c-3.508-2.201-8.137-1.141-10.339 2.367l-78.744 125.508-29.817-18.707 198.64-316.515c16.418 10.301 21.395 32.039 11.094 48.457l-84.186 134.183c-2.202 3.509-1.142 8.138 2.367 10.339 3.509 2.202 8.139 1.142 10.339-2.367l67.673-107.863h29.579c2.99 14.671 14.576 26.256 29.247 29.247v50.399h-90.533c-4.142 0-7.5 3.358-7.5 7.5s3.358 7.5 7.5 7.5h90.533v50.399c-14.671 2.99-26.256 14.576-29.247 29.247h-102.01l-17.864-30.374 5.635-8.982c2.202-3.508 1.142-8.137-2.367-10.338zm177.853 78.2c0 .823-.669 1.493-1.492 1.493h-144.12l-8.822-15h99.935c4.142 0 7.5-3.358 7.5-7.5 0-12.407 10.093-22.5 22.5-22.5 4.142 0 7.5-3.358 7.5-7.5v-129.292c0-4.142-3.358-7.5-7.5-7.5-12.407 0-22.5-10.093-22.5-22.5 0-4.142-3.358-7.5-7.5-7.5h-26.915l7.102-11.319c.757-1.206 1.442-2.437 2.084-3.681h70.737c.823 0 1.492.669 1.492 1.493v231.306z"/><path d="m182.539 391.892c-7.304-4.583-15.688-7.005-24.245-7.005-15.883 0-30.396 8.016-38.82 21.443-6.495 10.351-8.569 22.611-5.842 34.523 2.727 11.911 9.929 22.047 20.281 28.542 7.304 4.583 15.688 7.005 24.244 7.005 15.883 0 30.396-8.016 38.82-21.444 13.407-21.368 6.93-49.659-14.438-63.064zm1.732 55.092c-5.664 9.027-15.426 14.416-26.114 14.416-5.732 0-11.359-1.629-16.272-4.711-6.957-4.365-11.798-11.178-13.631-19.183-1.833-8.006-.438-16.246 3.926-23.203 5.664-9.026 15.426-14.416 26.114-14.416 5.733 0 11.361 1.629 16.273 4.711 14.361 9.01 18.715 28.024 9.704 42.386z"/><path d="m310.852 454.956c8.425 13.427 22.937 21.443 38.82 21.443 8.556 0 16.939-2.422 24.244-7.005 10.352-6.494 17.554-16.63 20.281-28.542s.653-24.172-5.842-34.522c-8.424-13.428-22.937-21.444-38.82-21.444-8.557 0-16.941 2.422-24.245 7.005-21.368 13.406-27.845 41.697-14.438 63.065zm22.41-50.358c4.912-3.082 10.54-4.711 16.273-4.711 10.688 0 20.45 5.389 26.114 14.416 4.365 6.957 5.759 15.197 3.926 23.203-1.833 8.005-6.673 14.818-13.63 19.183-4.913 3.082-10.54 4.711-16.272 4.711-10.688 0-20.451-5.389-26.114-14.416-9.012-14.362-4.658-33.376 9.703-42.386z"/><path d="m252.915 268.635c-4.142 0-7.5 3.358-7.5 7.5v4.992c0 4.142 3.358 7.5 7.5 7.5s7.5-3.358 7.5-7.5v-4.992c0-4.142-3.358-7.5-7.5-7.5z"/><path d="m143.966 193.027c4.142 0 7.5-3.358 7.5-7.5s-3.358-7.5-7.5-7.5h-8.547c-4.142 0-7.5 3.358-7.5 7.5s3.358 7.5 7.5 7.5z"/></g></svg>