<svg id="Layer_5" enable-background="new 0 0 64 64" height="512" viewBox="0 0 64 64" width="512" xmlns="http://www.w3.org/2000/svg"><g><path d="m13 13h2v2h-2z"/><path d="m9 13h2v2h-2z"/><path d="m17 13h2v2h-2z"/><path d="m21 13h2v2h-2z"/><path d="m36 53h-6v2h-5v2h5v2h6v-2h23v-2h-23zm-2 4h-2v-2h2z"/><path d="m5 59h6v-6h-6zm2-4h2v2h-2z"/><path d="m13 53h2v6h-2z"/><path d="m17 53h2v6h-2z"/><path d="m60 13h-7.532c-.638-1.41-1.813-2.553-3.324-3.103l-6.579-2.392c-.921-.335-1.887-.505-2.868-.505-2.628 0-5.139 1.255-6.715 3.358l-.508.676c-1.253.165-2.32.917-2.93 1.966h-2.544v-9c0-1.654-1.346-3-3-3h-16c-1.654 0-3 1.346-3 3v9h-1c-1.654 0-3 1.346-3 3v44c0 1.654 1.346 3 3 3h56c1.654 0 3-1.346 3-3v-44c0-1.654-1.346-3-3-3zm0 2c.551 0 1 .449 1 1v33h-2v-4.936c0-3.506-1.742-6.761-4.659-8.706-1.291-.861-2.786-1.433-4.324-1.652l-4.209-.602-.581-2.325c.765-.479 1.446-1.079 2.009-1.78h1.764c1.654 0 3-1.346 3-3v-1.382c.615-.703 1-1.612 1-2.618 0-.946-.344-1.805-.896-2.491l.721-2.687c.116-.463.175-.941.175-1.419 0-.136-.022-.268-.031-.402zm-11 5c1.103 0 2 .897 2 2s-.897 2-2 2zm-.263 6h.263c.347 0 .678-.058 1-.142v.142c0 .551-.449 1-1 1h-.589c.131-.323.237-.658.326-1zm-1.737-2c0 1.093-.299 2.116-.812 3h-5.188v2h3.31c-.95.631-2.087 1-3.31 1-3.309 0-6-2.691-6-6v-3.395c0-1.709.755-3.309 2.047-4.393 1.563.955 5.875 3.378 9.953 3.741zm-4.387 13.801 2.741-2.741.524.075-.642 4.239zm-1.613-5.801c.828 0 1.627-.127 2.379-.361l.514 2.055-2.893 2.892-2.892-2.892.514-2.055c.751.234 1.55.361 2.378.361zm-4.353 3.061 2.741 2.741-2.622 1.573-.642-4.239zm-2.504.357 1.092 7.207 3.072-1.843-1.174 8.218h-12.133v-4.936c0-2.836 1.409-5.468 3.769-7.042 1.044-.696 2.254-1.159 3.498-1.337zm6.373 4.039.484-.291.484.29 1.363 9.544h-3.694zm4.351 9.543-1.174-8.218 3.072 1.843 1.092-7.207 1.876.268c1.244.178 2.454.641 3.498 1.337 2.36 1.573 3.769 4.206 3.769 7.041v4.936zm-11.867-36h.5l1.082-1.442c1.201-1.602 3.113-2.558 5.115-2.558.747 0 1.482.129 2.185.385l6.579 2.392c1.518.552 2.539 2.009 2.539 3.625 0 .315-.039.63-.111.919l-.52 1.936c-.429-.158-.886-.257-1.369-.257h-1c-4.633 0-10.388-3.794-10.446-3.833l-.554-.369-.554.37c-1.406.937-2.434 2.289-2.986 3.832h-.46c-.503 0-.979.104-1.423.274-.265-.92-.577-2.225-.577-3.274 0-1.103.897-2 2-2zm0 7.605v3.395c-1.103 0-2-.897-2-2s.897-2 2-2h.037c-.015.201-.037.401-.037.605zm-26-16.605c0-.551.449-1 1-1h16c.551 0 1 .449 1 1v12c0 .551-.449 1-1 1h-3v3.638c0 .308-.442.467-.64.231l-3.953-3.869h-8.407c-.551 0-1-.449-1-1zm-3 11h1v1c0 1.654 1.346 3 3 3h7.593l3.269 3.194c.448.513 1.093.806 1.776.806 1.302 0 2.362-1.06 2.362-2.362v-1.638h1c1.654 0 3-1.346 3-3v-1h2c0 1.609.566 3.587.871 4.539-.537.681-.871 1.529-.871 2.461 0 2.206 1.794 4 4 4h.263c.519 2.007 1.796 3.708 3.511 4.78l-.581 2.325-4.209.602c-1.538.22-3.033.792-4.324 1.652-2.918 1.945-4.66 5.199-4.66 8.705v4.936h-20v-33c0-.551.449-1 1-1zm56 46h-56c-.551 0-1-.449-1-1v-9h58v9c0 .551-.449 1-1 1z"/><path d="m9 5h14v2h-14z"/><path d="m9 9h14v2h-14z"/><path d="m21 29h-16v18h16zm-2 16h-12v-14h12z"/><path d="m9 33h8v2h-8z"/><path d="m9 37h8v2h-8z"/><path d="m9 41h8v2h-8z"/></g></svg>