<?xml version="1.0" encoding="iso-8859-1"?>
<!-- Generator: Adobe Illustrator 17.1.0, SVG Export Plug-In . SVG Version: 6.00 Build 0)  -->
<!DOCTYPE svg PUBLIC "-//W3C//DTD SVG 1.1//EN" "http://www.w3.org/Graphics/SVG/1.1/DTD/svg11.dtd">
<svg version="1.1" id="Capa_1" xmlns="http://www.w3.org/2000/svg" xmlns:xlink="http://www.w3.org/1999/xlink" x="0px" y="0px"
	 viewBox="0 0 512 512" style="enable-background:new 0 0 512 512;" xml:space="preserve">
<g>
	<path d="M216,248H97c-4.418,0-8,3.582-8,8s3.582,8,8,8h119c4.418,0,8-3.582,8-8S220.418,248,216,248z"/>
	<path d="M288,256c0,4.418,3.582,8,8,8h120c4.418,0,8-3.582,8-8s-3.582-8-8-8H296C291.582,248,288,251.582,288,256z"/>
	<path d="M504,248h-16.151c-1.985-58.969-25.873-114.121-67.8-156.049S322.969,26.136,264,24.151V8c0-4.418-3.582-8-8-8
		s-8,3.582-8,8v16.151c-58.969,1.985-114.121,25.873-156.049,67.8S26.136,189.031,24.151,248H8c-4.418,0-8,3.582-8,8s3.582,8,8,8
		h16.151c1.985,58.969,25.873,114.121,67.8,156.049s97.079,65.815,156.049,67.8V504c0,4.418,3.582,8,8,8s8-3.582,8-8v-16.151
		c58.969-1.985,114.121-25.873,156.049-67.8s65.815-97.079,67.8-156.049H504c4.418,0,8-3.582,8-8S508.418,248,504,248z
		 M408.735,103.265C447.64,142.17,469.861,193.306,471.839,248h-16.008c-1.798-44.911-18.684-88.037-48.02-122.209
		c-2.876-3.352-7.927-3.737-11.281-0.859c-3.353,2.878-3.737,7.928-0.859,11.281C424.257,169.51,440,212.052,440,256
		c0,101.458-82.542,184-184,184S72,357.458,72,256S154.542,72,256,72c43.948,0,86.49,15.743,119.788,44.328
		c3.352,2.878,8.403,2.494,11.281-0.859c2.878-3.353,2.494-8.403-0.859-11.281C352.037,74.852,308.911,57.967,264,56.168V40.161
		C318.694,42.139,369.83,64.36,408.735,103.265z M103.265,103.265C142.17,64.36,193.306,42.139,248,40.161v16.013
		C144.07,60.284,60.284,144.07,56.174,248H40.161C42.139,193.306,64.36,142.17,103.265,103.265z M103.265,408.735
		C64.36,369.83,42.139,318.694,40.161,264h16.013C60.284,367.93,144.07,451.716,248,455.826v16.013
		C193.306,469.861,142.17,447.64,103.265,408.735z M408.735,408.735C369.83,447.64,318.694,469.861,264,471.839v-16.013
		C367.93,451.716,451.716,367.93,455.826,264h16.013C469.861,318.694,447.64,369.83,408.735,408.735z"/>
	<path d="M256,288c-4.418,0-8,3.582-8,8v119c0,4.418,3.582,8,8,8s8-3.582,8-8V296C264,291.582,260.418,288,256,288z"/>
	<path d="M256,88c-4.418,0-8,3.582-8,8v120c0,4.418,3.582,8,8,8s8-3.582,8-8V96C264,91.582,260.418,88,256,88z"/>
</g>
<g>
</g>
<g>
</g>
<g>
</g>
<g>
</g>
<g>
</g>
<g>
</g>
<g>
</g>
<g>
</g>
<g>
</g>
<g>
</g>
<g>
</g>
<g>
</g>
<g>
</g>
<g>
</g>
<g>
</g>
</svg>
