<?xml version="1.0" encoding="iso-8859-1"?>
<!-- Generator: Adobe Illustrator 19.0.0, SVG Export Plug-In . SVG Version: 6.00 Build 0)  -->
<svg version="1.1" id="Layer_1" xmlns="http://www.w3.org/2000/svg" xmlns:xlink="http://www.w3.org/1999/xlink" x="0px" y="0px"
	 viewBox="0 0 491.52 491.52" style="enable-background:new 0 0 491.52 491.52;" xml:space="preserve">
<circle style="fill:#EFC84A;" cx="245.76" cy="245.76" r="245.76"/>
<path style="opacity:0.1;enable-background:new    ;" d="M491.304,254.32L341.965,104.981l-21.504,21.504
	c-21.658-13.67-47.258-21.504-74.701-21.504c-77.773,0-140.8,63.027-140.8,140.8c0,34.611,12.493,66.304,33.229,90.829l0.256,0.256
	c5.018,5.939,10.496,11.418,16.435,16.435l134.314,134.315C401.464,467.582,487.289,371.371,491.304,254.32z"/>
<circle style="fill:#E56353;" cx="245.76" cy="245.76" r="140.8"/>
<path style="fill:#FFFFFF;" d="M245.759,353.561c-59.442,0-107.798-48.358-107.798-107.8c0-59.442,48.356-107.799,107.798-107.799
	c59.442,0,107.802,48.358,107.802,107.799C353.561,305.203,305.201,353.561,245.759,353.561z"/>
<path style="fill:#E56353;" d="M245.759,320.561c-41.242,0-74.798-33.556-74.798-74.8c0-41.244,33.555-74.8,74.798-74.8
	c41.246,0,74.802,33.556,74.802,74.8C320.561,287.005,287.005,320.561,245.759,320.561z"/>
<circle style="fill:#FFFFFF;" cx="245.76" cy="245.76" r="41.8"/>
<g>
	<polygon style="fill:#3A556A;" points="295.93,186.766 290.444,156.476 341.96,104.96 347.446,135.249 	"/>
	<polygon style="fill:#3A556A;" points="304.754,195.59 335.044,201.076 386.56,149.559 356.271,144.074 	"/>
</g>
<path style="fill:#64798A;" d="M248.533,251.811l-8.824-8.824l107.921-107.922c2.437-2.437,6.388-2.437,8.824,0l0,0
	c2.437,2.437,2.437,6.388,0,8.825L248.533,251.811z"/>
<g>
</g>
<g>
</g>
<g>
</g>
<g>
</g>
<g>
</g>
<g>
</g>
<g>
</g>
<g>
</g>
<g>
</g>
<g>
</g>
<g>
</g>
<g>
</g>
<g>
</g>
<g>
</g>
<g>
</g>
</svg>
